<svg width="36" height="34" viewBox="0 0 26 24" fill="none" xmlns="http://www.w3.org/2000/svg">
<path d="M16.7622 14.0156H15.9653L15.6841 13.7344C16.856 12.3281 17.5122 10.4062 17.1372 8.39062C16.6685 5.625 14.3716 3.375 11.5591 3.04688C7.34033 2.53125 3.77783 6.09375 4.29346 10.3125C4.62158 13.125 6.87158 15.4219 9.63721 15.8906C11.6528 16.2656 13.5747 15.6094 14.981 14.4375L15.2622 14.7188V15.5156L19.481 19.7344C19.9028 20.1562 20.5591 20.1562 20.981 19.7344C21.4028 19.3594 21.4028 18.6562 20.981 18.2812L16.7622 14.0156ZM10.7622 14.0156C8.27783 14.0156 6.26221 12 6.26221 9.51562C6.26221 7.03125 8.27783 5.01562 10.7622 5.01562C13.2466 5.01562 15.2622 7.03125 15.2622 9.51562C15.2622 12 13.2466 14.0156 10.7622 14.0156Z" fill="#7E8086"/>
</svg>
